<svg id="visual" viewBox="0 0 300 300" width="300" height="300" xmlns="http://www.w3.org/2000/svg" xmlns:xlink="http://www.w3.org/1999/xlink" version="1.1"><g transform="translate(122.83742288002392 155.2291040409865)"><path d="M104.1 -113.8C134.8 -98.2 159.7 -65.4 159.9 -32.9C160.1 -0.4 135.5 31.8 111 54.6C86.6 77.4 62.3 90.9 36 101.5C9.8 112.1 -18.4 120 -39.1 110.9C-59.9 101.9 -73.2 75.9 -85.5 51.1C-97.8 26.3 -109 2.5 -104.6 -17.8C-100.2 -38.1 -80.2 -54.9 -60.2 -72.4C-40.2 -89.9 -20.1 -107.9 8.3 -117.8C36.6 -127.7 73.3 -129.3 104.1 -113.8" fill="#2517e5"></path></g></svg>