<svg id="visual" viewBox="0 0 300 300" width="300" height="300" xmlns="http://www.w3.org/2000/svg" xmlns:xlink="http://www.w3.org/1999/xlink" version="1.1"><g transform="translate(176.20451810605198 146.90853244963597)"><path d="M92.7 -108.5C109.9 -96 106.6 -57.1 106.3 -24C105.9 9.2 108.4 36.6 98.1 58.7C87.8 80.9 64.8 97.8 38.5 108.4C12.3 119 -17.1 123.4 -45.1 116.5C-73.2 109.5 -99.8 91.3 -122.8 64.5C-145.8 37.8 -165.2 2.6 -157.4 -25.2C-149.5 -53.1 -114.3 -73.7 -83.5 -83.9C-52.7 -94.1 -26.4 -93.9 5.7 -100.7C37.7 -107.4 75.4 -121.1 92.7 -108.5" fill="#2517e5"></path></g></svg>