<svg id="visual" viewBox="0 0 960 300" width="960" height="300" xmlns="http://www.w3.org/2000/svg" xmlns:xlink="http://www.w3.org/1999/xlink" version="1.1"><rect x="0" y="0" width="960" height="300" fill="#001220"></rect><path d="M0 46L22.8 49.7C45.7 53.3 91.3 60.7 137 72.5C182.7 84.3 228.3 100.7 274 112.8C319.7 125 365.3 133 411.2 126.5C457 120 503 99 548.8 94.7C594.7 90.3 640.3 102.7 686 103.3C731.7 104 777.3 93 823 85.5C868.7 78 914.3 74 937.2 72L960 70L960 301L937.2 301C914.3 301 868.7 301 823 301C777.3 301 731.7 301 686 301C640.3 301 594.7 301 548.8 301C503 301 457 301 411.2 301C365.3 301 319.7 301 274 301C228.3 301 182.7 301 137 301C91.3 301 45.7 301 22.8 301L0 301Z" fill="#6c64dd"></path><path d="M0 131L22.8 139.5C45.7 148 91.3 165 137 165.3C182.7 165.7 228.3 149.3 274 135.2C319.7 121 365.3 109 411.2 113.2C457 117.3 503 137.7 548.8 148.8C594.7 160 640.3 162 686 166.5C731.7 171 777.3 178 823 175.5C868.7 173 914.3 161 937.2 155L960 149L960 301L937.2 301C914.3 301 868.7 301 823 301C777.3 301 731.7 301 686 301C640.3 301 594.7 301 548.8 301C503 301 457 301 411.2 301C365.3 301 319.7 301 274 301C228.3 301 182.7 301 137 301C91.3 301 45.7 301 22.8 301L0 301Z" fill="#6158de"></path><path d="M0 149L22.8 158.7C45.7 168.3 91.3 187.7 137 191.7C182.7 195.7 228.3 184.3 274 183.5C319.7 182.7 365.3 192.3 411.2 187.3C457 182.3 503 162.7 548.8 153.2C594.7 143.7 640.3 144.3 686 154.5C731.7 164.7 777.3 184.3 823 196C868.7 207.7 914.3 211.3 937.2 213.2L960 215L960 301L937.2 301C914.3 301 868.7 301 823 301C777.3 301 731.7 301 686 301C640.3 301 594.7 301 548.8 301C503 301 457 301 411.2 301C365.3 301 319.7 301 274 301C228.3 301 182.7 301 137 301C91.3 301 45.7 301 22.8 301L0 301Z" fill="#564cde"></path><path d="M0 201L22.8 201.7C45.7 202.3 91.3 203.7 137 200.5C182.7 197.3 228.3 189.7 274 187.5C319.7 185.3 365.3 188.7 411.2 194.2C457 199.7 503 207.3 548.8 206.3C594.7 205.3 640.3 195.7 686 192C731.7 188.3 777.3 190.7 823 191.5C868.7 192.3 914.3 191.7 937.2 191.3L960 191L960 301L937.2 301C914.3 301 868.7 301 823 301C777.3 301 731.7 301 686 301C640.3 301 594.7 301 548.8 301C503 301 457 301 411.2 301C365.3 301 319.7 301 274 301C228.3 301 182.7 301 137 301C91.3 301 45.7 301 22.8 301L0 301Z" fill="#4a3fde"></path><path d="M0 229L22.8 234.8C45.7 240.7 91.3 252.3 137 253C182.7 253.7 228.3 243.3 274 237.3C319.7 231.3 365.3 229.7 411.2 235.5C457 241.3 503 254.7 548.8 253.5C594.7 252.3 640.3 236.7 686 231.7C731.7 226.7 777.3 232.3 823 236.7C868.7 241 914.3 244 937.2 245.5L960 247L960 301L937.2 301C914.3 301 868.7 301 823 301C777.3 301 731.7 301 686 301C640.3 301 594.7 301 548.8 301C503 301 457 301 411.2 301C365.3 301 319.7 301 274 301C228.3 301 182.7 301 137 301C91.3 301 45.7 301 22.8 301L0 301Z" fill="#3c31dd"></path></svg>