<svg id="visual" viewBox="0 0 960 300" width="960" height="300" xmlns="http://www.w3.org/2000/svg" xmlns:xlink="http://www.w3.org/1999/xlink" version="1.1"><rect x="0" y="0" width="960" height="300" fill="#001220"></rect><path d="M0 252L22.8 248.3C45.7 244.7 91.3 237.3 137 225.5C182.7 213.7 228.3 197.3 274 185.2C319.7 173 365.3 165 411.2 171.5C457 178 503 199 548.8 203.3C594.7 207.7 640.3 195.3 686 194.7C731.7 194 777.3 205 823 212.5C868.7 220 914.3 224 937.2 226L960 228L960 0L937.2 0C914.3 0 868.7 0 823 0C777.3 0 731.7 0 686 0C640.3 0 594.7 0 548.8 0C503 0 457 0 411.2 0C365.3 0 319.7 0 274 0C228.3 0 182.7 0 137 0C91.3 0 45.7 0 22.8 0L0 0Z" fill="#6c64dd"></path><path d="M0 167L22.8 158.5C45.7 150 91.3 133 137 132.7C182.7 132.3 228.3 148.7 274 162.8C319.7 177 365.3 189 411.2 184.8C457 180.7 503 160.3 548.8 149.2C594.7 138 640.3 136 686 131.5C731.7 127 777.3 120 823 122.5C868.7 125 914.3 137 937.2 143L960 149L960 0L937.2 0C914.3 0 868.7 0 823 0C777.3 0 731.7 0 686 0C640.3 0 594.7 0 548.8 0C503 0 457 0 411.2 0C365.3 0 319.7 0 274 0C228.3 0 182.7 0 137 0C91.3 0 45.7 0 22.8 0L0 0Z" fill="#6158de"></path><path d="M0 149L22.8 139.3C45.7 129.7 91.3 110.3 137 106.3C182.7 102.3 228.3 113.7 274 114.5C319.7 115.3 365.3 105.7 411.2 110.7C457 115.7 503 135.3 548.8 144.8C594.7 154.3 640.3 153.7 686 143.5C731.7 133.3 777.3 113.7 823 102C868.7 90.3 914.3 86.7 937.2 84.8L960 83L960 0L937.2 0C914.3 0 868.7 0 823 0C777.3 0 731.7 0 686 0C640.3 0 594.7 0 548.8 0C503 0 457 0 411.2 0C365.3 0 319.7 0 274 0C228.3 0 182.7 0 137 0C91.3 0 45.7 0 22.8 0L0 0Z" fill="#564cde"></path><path d="M0 97L22.8 96.3C45.7 95.7 91.3 94.3 137 97.5C182.7 100.7 228.3 108.3 274 110.5C319.7 112.7 365.3 109.3 411.2 103.8C457 98.3 503 90.7 548.8 91.7C594.7 92.7 640.3 102.3 686 106C731.7 109.7 777.3 107.3 823 106.5C868.7 105.7 914.3 106.3 937.2 106.7L960 107L960 0L937.2 0C914.3 0 868.7 0 823 0C777.3 0 731.7 0 686 0C640.3 0 594.7 0 548.8 0C503 0 457 0 411.2 0C365.3 0 319.7 0 274 0C228.3 0 182.7 0 137 0C91.3 0 45.7 0 22.8 0L0 0Z" fill="#4a3fde"></path><path d="M0 69L22.8 63.2C45.7 57.3 91.3 45.7 137 45C182.7 44.3 228.3 54.7 274 60.7C319.7 66.7 365.3 68.3 411.2 62.5C457 56.7 503 43.3 548.8 44.5C594.7 45.7 640.3 61.3 686 66.3C731.7 71.3 777.3 65.7 823 61.3C868.7 57 914.3 54 937.2 52.5L960 51L960 0L937.2 0C914.3 0 868.7 0 823 0C777.3 0 731.7 0 686 0C640.3 0 594.7 0 548.8 0C503 0 457 0 411.2 0C365.3 0 319.7 0 274 0C228.3 0 182.7 0 137 0C91.3 0 45.7 0 22.8 0L0 0Z" fill="#3c31dd"></path></svg>