<svg id="visual" viewBox="0 0 960 300" width="960" height="300" xmlns="http://www.w3.org/2000/svg" xmlns:xlink="http://www.w3.org/1999/xlink" version="1.1"><rect x="0" y="0" width="960" height="300" fill="#001220"></rect><path d="M0 238L137 234L274 224L411 205L549 161L686 238L823 215L960 162L960 0L823 0L686 0L549 0L411 0L274 0L137 0L0 0Z" fill="#304be6"></path><path d="M0 158L137 202L274 129L411 188L549 156L686 177L823 200L960 144L960 0L823 0L686 0L549 0L411 0L274 0L137 0L0 0Z" fill="#8b46d3"></path><path d="M0 115L137 93L274 99L411 148L549 154L686 112L823 116L960 149L960 0L823 0L686 0L549 0L411 0L274 0L137 0L0 0Z" fill="#b547bf"></path><path d="M0 103L137 114L274 115L411 117L549 104L686 114L823 83L960 88L960 0L823 0L686 0L549 0L411 0L274 0L137 0L0 0Z" fill="#cf52ad"></path><path d="M0 58L137 44L274 51L411 29L549 68L686 57L823 50L960 68L960 0L823 0L686 0L549 0L411 0L274 0L137 0L0 0Z" fill="#de649f"></path></svg>