<svg id="visual" viewBox="0 0 960 300" width="960" height="300" xmlns="http://www.w3.org/2000/svg" xmlns:xlink="http://www.w3.org/1999/xlink" version="1.1"><path d="M0 162L16 156.8C32 151.7 64 141.3 96 136.5C128 131.7 160 132.3 192 140.3C224 148.3 256 163.7 288 169C320 174.3 352 169.7 384 169.2C416 168.7 448 172.3 480 171C512 169.7 544 163.3 576 161.8C608 160.3 640 163.7 672 164.3C704 165 736 163 768 165.3C800 167.7 832 174.3 864 178C896 181.7 928 182.3 944 182.7L960 183L960 0L944 0C928 0 896 0 864 0C832 0 800 0 768 0C736 0 704 0 672 0C640 0 608 0 576 0C544 0 512 0 480 0C448 0 416 0 384 0C352 0 320 0 288 0C256 0 224 0 192 0C160 0 128 0 96 0C64 0 32 0 16 0L0 0Z" fill="#7168ec"></path><path d="M0 163L16 151.7C32 140.3 64 117.7 96 108C128 98.3 160 101.7 192 107.2C224 112.7 256 120.3 288 123.3C320 126.3 352 124.7 384 119.7C416 114.7 448 106.3 480 105.7C512 105 544 112 576 113.2C608 114.3 640 109.7 672 117C704 124.3 736 143.7 768 142.5C800 141.3 832 119.7 864 113.8C896 108 928 118 944 123L960 128L960 0L944 0C928 0 896 0 864 0C832 0 800 0 768 0C736 0 704 0 672 0C640 0 608 0 576 0C544 0 512 0 480 0C448 0 416 0 384 0C352 0 320 0 288 0C256 0 224 0 192 0C160 0 128 0 96 0C64 0 32 0 16 0L0 0Z" fill="#655be9"></path><path d="M0 106L16 102.3C32 98.7 64 91.3 96 89C128 86.7 160 89.3 192 88.7C224 88 256 84 288 87.7C320 91.3 352 102.7 384 102C416 101.3 448 88.7 480 85.2C512 81.7 544 87.3 576 88.8C608 90.3 640 87.7 672 92C704 96.3 736 107.7 768 110.3C800 113 832 107 864 108.3C896 109.7 928 118.3 944 122.7L960 127L960 0L944 0C928 0 896 0 864 0C832 0 800 0 768 0C736 0 704 0 672 0C640 0 608 0 576 0C544 0 512 0 480 0C448 0 416 0 384 0C352 0 320 0 288 0C256 0 224 0 192 0C160 0 128 0 96 0C64 0 32 0 16 0L0 0Z" fill="#584ee5"></path><path d="M0 89L16 88.5C32 88 64 87 96 80.5C128 74 160 62 192 56.7C224 51.3 256 52.7 288 52.3C320 52 352 50 384 55C416 60 448 72 480 74.7C512 77.3 544 70.7 576 69.2C608 67.7 640 71.3 672 70C704 68.7 736 62.3 768 61.2C800 60 832 64 864 65C896 66 928 64 944 63L960 62L960 0L944 0C928 0 896 0 864 0C832 0 800 0 768 0C736 0 704 0 672 0C640 0 608 0 576 0C544 0 512 0 480 0C448 0 416 0 384 0C352 0 320 0 288 0C256 0 224 0 192 0C160 0 128 0 96 0C64 0 32 0 16 0L0 0Z" fill="#4b40e1"></path><path d="M0 24L16 23.3C32 22.7 64 21.3 96 23C128 24.7 160 29.3 192 33.2C224 37 256 40 288 43.5C320 47 352 51 384 52.8C416 54.7 448 54.3 480 52.8C512 51.3 544 48.7 576 48.3C608 48 640 50 672 45.7C704 41.3 736 30.7 768 29C800 27.3 832 34.7 864 40.3C896 46 928 50 944 52L960 54L960 0L944 0C928 0 896 0 864 0C832 0 800 0 768 0C736 0 704 0 672 0C640 0 608 0 576 0C544 0 512 0 480 0C448 0 416 0 384 0C352 0 320 0 288 0C256 0 224 0 192 0C160 0 128 0 96 0C64 0 32 0 16 0L0 0Z" fill='#3c31dd'></path></svg>