<svg id="visual" viewBox="0 0 960 300" width="960" height="300" xmlns="http://www.w3.org/2000/svg" xmlns:xlink="http://www.w3.org/1999/xlink" version="1.1"><path d="M0 111L16 117.2C32 123.3 64 135.7 96 141.7C128 147.7 160 147.3 192 148.5C224 149.7 256 152.3 288 150.3C320 148.3 352 141.7 384 139.3C416 137 448 139 480 142.7C512 146.3 544 151.7 576 150.3C608 149 640 141 672 137.3C704 133.7 736 134.3 768 135.2C800 136 832 137 864 131.2C896 125.3 928 112.7 944 106.3L960 100L960 301L944 301C928 301 896 301 864 301C832 301 800 301 768 301C736 301 704 301 672 301C640 301 608 301 576 301C544 301 512 301 480 301C448 301 416 301 384 301C352 301 320 301 288 301C256 301 224 301 192 301C160 301 128 301 96 301C64 301 32 301 16 301L0 301Z" fill="#7168ec"></path><path d="M0 140L16 142.2C32 144.3 64 148.7 96 158.8C128 169 160 185 192 189.2C224 193.3 256 185.7 288 176C320 166.3 352 154.7 384 147.7C416 140.7 448 138.3 480 143C512 147.7 544 159.3 576 167.2C608 175 640 179 672 179.2C704 179.3 736 175.7 768 168C800 160.3 832 148.7 864 153.7C896 158.7 928 180.3 944 191.2L960 202L960 301L944 301C928 301 896 301 864 301C832 301 800 301 768 301C736 301 704 301 672 301C640 301 608 301 576 301C544 301 512 301 480 301C448 301 416 301 384 301C352 301 320 301 288 301C256 301 224 301 192 301C160 301 128 301 96 301C64 301 32 301 16 301L0 301Z" fill="#655be9"></path><path d="M0 202L16 198.2C32 194.3 64 186.7 96 184.5C128 182.3 160 185.7 192 185.3C224 185 256 181 288 184.8C320 188.7 352 200.3 384 204C416 207.7 448 203.3 480 200.3C512 197.3 544 195.7 576 195C608 194.3 640 194.7 672 195.8C704 197 736 199 768 197.3C800 195.7 832 190.3 864 189.8C896 189.3 928 193.7 944 195.8L960 198L960 301L944 301C928 301 896 301 864 301C832 301 800 301 768 301C736 301 704 301 672 301C640 301 608 301 576 301C544 301 512 301 480 301C448 301 416 301 384 301C352 301 320 301 288 301C256 301 224 301 192 301C160 301 128 301 96 301C64 301 32 301 16 301L0 301Z" fill="#584ee5"></path><path d="M0 225L16 225.7C32 226.3 64 227.7 96 231.7C128 235.7 160 242.3 192 241.3C224 240.3 256 231.7 288 230.7C320 229.7 352 236.3 384 240.7C416 245 448 247 480 242.2C512 237.3 544 225.7 576 225C608 224.3 640 234.7 672 238C704 241.3 736 237.7 768 233.2C800 228.7 832 223.3 864 219.5C896 215.7 928 213.3 944 212.2L960 211L960 301L944 301C928 301 896 301 864 301C832 301 800 301 768 301C736 301 704 301 672 301C640 301 608 301 576 301C544 301 512 301 480 301C448 301 416 301 384 301C352 301 320 301 288 301C256 301 224 301 192 301C160 301 128 301 96 301C64 301 32 301 16 301L0 301Z" fill="#4b40e1"></path><path d="M0 271L16 269.5C32 268 64 265 96 260.2C128 255.3 160 248.7 192 251C224 253.3 256 264.7 288 270.7C320 276.7 352 277.3 384 273.2C416 269 448 260 480 256C512 252 544 253 576 254.7C608 256.3 640 258.7 672 258.2C704 257.7 736 254.3 768 253C800 251.7 832 252.3 864 255.3C896 258.3 928 263.7 944 266.3L960 269L960 301L944 301C928 301 896 301 864 301C832 301 800 301 768 301C736 301 704 301 672 301C640 301 608 301 576 301C544 301 512 301 480 301C448 301 416 301 384 301C352 301 320 301 288 301C256 301 224 301 192 301C160 301 128 301 96 301C64 301 32 301 16 301L0 301Z" fill="#3c31dd"></path></svg>