<svg id="visual" viewBox="0 0 960 300" width="960" height="300" xmlns="http://www.w3.org/2000/svg" xmlns:xlink="http://www.w3.org/1999/xlink" version="1.1"><path d="M0 132L16 142.5C32 153 64 174 96 182.7C128 191.3 160 187.7 192 185.2C224 182.7 256 181.3 288 177.8C320 174.3 352 168.7 384 162.3C416 156 448 149 480 147.3C512 145.7 544 149.3 576 153.2C608 157 640 161 672 160.2C704 159.3 736 153.7 768 158.2C800 162.7 832 177.3 864 174.3C896 171.3 928 150.7 944 140.3L960 130L960 0L944 0C928 0 896 0 864 0C832 0 800 0 768 0C736 0 704 0 672 0C640 0 608 0 576 0C544 0 512 0 480 0C448 0 416 0 384 0C352 0 320 0 288 0C256 0 224 0 192 0C160 0 128 0 96 0C64 0 32 0 16 0L0 0Z" fill="#7168ec"></path><path d="M0 113L16 121.2C32 129.3 64 145.7 96 152.3C128 159 160 156 192 148.2C224 140.3 256 127.7 288 128.3C320 129 352 143 384 141.8C416 140.7 448 124.3 480 117.7C512 111 544 114 576 114.8C608 115.7 640 114.3 672 120.3C704 126.3 736 139.7 768 142.3C800 145 832 137 864 133.7C896 130.3 928 131.7 944 132.3L960 133L960 0L944 0C928 0 896 0 864 0C832 0 800 0 768 0C736 0 704 0 672 0C640 0 608 0 576 0C544 0 512 0 480 0C448 0 416 0 384 0C352 0 320 0 288 0C256 0 224 0 192 0C160 0 128 0 96 0C64 0 32 0 16 0L0 0Z" fill="#655be9"></path><path d="M0 86L16 85.7C32 85.3 64 84.7 96 84.2C128 83.7 160 83.3 192 90.2C224 97 256 111 288 110.7C320 110.3 352 95.7 384 94.7C416 93.7 448 106.3 480 108C512 109.7 544 100.3 576 97.8C608 95.3 640 99.7 672 103.5C704 107.3 736 110.7 768 112.8C800 115 832 116 864 114.3C896 112.7 928 108.3 944 106.2L960 104L960 0L944 0C928 0 896 0 864 0C832 0 800 0 768 0C736 0 704 0 672 0C640 0 608 0 576 0C544 0 512 0 480 0C448 0 416 0 384 0C352 0 320 0 288 0C256 0 224 0 192 0C160 0 128 0 96 0C64 0 32 0 16 0L0 0Z" fill="#584ee5"></path><path d="M0 56L16 57.7C32 59.3 64 62.7 96 68.2C128 73.7 160 81.3 192 81.5C224 81.7 256 74.3 288 72C320 69.7 352 72.3 384 68.7C416 65 448 55 480 50.2C512 45.3 544 45.7 576 52.5C608 59.3 640 72.7 672 73.2C704 73.7 736 61.3 768 61C800 60.7 832 72.3 864 76.5C896 80.7 928 77.3 944 75.7L960 74L960 0L944 0C928 0 896 0 864 0C832 0 800 0 768 0C736 0 704 0 672 0C640 0 608 0 576 0C544 0 512 0 480 0C448 0 416 0 384 0C352 0 320 0 288 0C256 0 224 0 192 0C160 0 128 0 96 0C64 0 32 0 16 0L0 0Z" fill="#4b40e1"></path><path d="M0 26L16 25.8C32 25.7 64 25.3 96 25.3C128 25.3 160 25.7 192 29.3C224 33 256 40 288 39.7C320 39.3 352 31.7 384 33.3C416 35 448 46 480 45.7C512 45.3 544 33.7 576 30.7C608 27.7 640 33.3 672 39C704 44.7 736 50.3 768 49C800 47.7 832 39.3 864 39.2C896 39 928 47 944 51L960 55L960 0L944 0C928 0 896 0 864 0C832 0 800 0 768 0C736 0 704 0 672 0C640 0 608 0 576 0C544 0 512 0 480 0C448 0 416 0 384 0C352 0 320 0 288 0C256 0 224 0 192 0C160 0 128 0 96 0C64 0 32 0 16 0L0 0Z" fill="#3c31dd"></path></svg>