<svg id="visual" viewBox="0 0 960 300" width="960" height="300" xmlns="http://www.w3.org/2000/svg" xmlns:xlink="http://www.w3.org/1999/xlink" version="1.1"><rect x="0" y="0" width="960" height="300" fill="#001220"></rect><path d="M0 156L137 173L274 149L411 135L549 112L686 107L823 167L960 172L960 0L823 0L686 0L549 0L411 0L274 0L137 0L0 0Z" fill="#304be6"></path><path d="M0 95L137 89L274 120L411 112L549 83L686 127L823 104L960 118L960 0L823 0L686 0L549 0L411 0L274 0L137 0L0 0Z" fill="#8b46d3"></path><path d="M0 110L137 84L274 86L411 88L549 91L686 86L823 92L960 88L960 0L823 0L686 0L549 0L411 0L274 0L137 0L0 0Z" fill="#b547bf"></path><path d="M0 55L137 81L274 43L411 46L549 79L686 48L823 65L960 69L960 0L823 0L686 0L549 0L411 0L274 0L137 0L0 0Z" fill="#cf52ad"></path><path d="M0 45L137 46L274 18L411 50L549 26L686 36L823 17L960 48L960 0L823 0L686 0L549 0L411 0L274 0L137 0L0 0Z" fill="#de649f"></path></svg>